<?xml version="1.0" standalone="no"?>
 <!DOCTYPE svg PUBLIC "-//W3C//DTD SVG 1.1//EN" 
 "http://www.w3.org/Graphics/SVG/1.1/DTD/svg11.dtd"> 
<svg xmlns="http://www.w3.org/2000/svg" version="1.1" 
    width="2.1717cm" height="2.25806cm" viewBox="0 0 8550 8890 ">
<title>SVG Picture created as stm8-F.SilkS.svg date 2017/06/07 14:25:06 </title>
  <desc>Picture generated by PCBNEW </desc>
<g style="fill:#000000; fill-opacity:1;stroke:#000000; stroke-opacity:1;
stroke-linecap:round; stroke-linejoin:round; "
 transform="translate(0 0) scale(1 1)">
</g>
<g style="fill:#000000; fill-opacity:0.0; 
stroke:#000000; stroke-width:-0.000393701; stroke-opacity:1; 
stroke-linecap:round; stroke-linejoin:round;">
</g>
<g style="fill:#000000; fill-opacity:0.0; 
stroke:#000000; stroke-width:59.0551; stroke-opacity:1; 
stroke-linecap:round; stroke-linejoin:round;">
<path d="M29 8029
L29 29
" />
<path d="M8529 8029
L29 8029
" />
<path d="M8529 29
L8529 8029
" />
<path d="M29 29
L8529 29
" />
<path d="M1079 2595
L1098 2613
L1117 2670
L1117 2707
L1098 2763
L1060 2801
L1023 2820
L948 2838
L892 2838
L817 2820
L779 2801
L742 2763
L723 2707
L723 2670
L742 2613
L760 2595
" />
<path d="M1117 2220
L1117 2445
" />
<path d="M1117 2332
L723 2332
L779 2370
L817 2407
L835 2445
" />
<path d="M6636 2820
L6243 2820
L6243 2726
L6261 2670
L6299 2632
L6336 2613
L6411 2595
L6468 2595
L6543 2613
L6580 2632
L6618 2670
L6636 2726
L6636 2820
" />
<path d="M6636 2220
L6636 2445
" />
<path d="M6636 2332
L6243 2332
L6299 2370
L6336 2407
L6355 2445
" />
<path d="M1896 6160
L2177 6160
L2234 6179
L2271 6217
L2290 6273
L2290 6310
" />
<path d="M2290 5767
L2290 5992
" />
<path d="M2290 5879
L1896 5879
L1952 5917
L1990 5954
L2009 5992
" />
<path d="M4194 461
L4194 779
L4213 817
L4232 835
L4269 854
L4344 854
L4382 835
L4400 817
L4419 779
L4419 461
" />
<path d="M4813 854
L4588 854
" />
<path d="M4700 854
L4700 461
L4663 517
L4625 554
L4588 573
" />
</g>
<g style="fill:#000000; fill-opacity:0.0; 
stroke:#000000; stroke-width:47.2441; stroke-opacity:1; 
stroke-linecap:round; stroke-linejoin:round;">
<path d="M1194 2332
L1194 2726
" />
<path d="M1864 2726
L1864 2332
" />
<path d="M6753 3238
L7305 3238
" />
<path d="M7305 3238
L7305 2135
" />
<path d="M6753 3238
L6753 2135
" />
<path d="M3529 6553
L6553 6553
" />
<path d="M6553 6553
L6553 5505
" />
<path d="M6553 5505
L3529 5505
" />
<path d="M3529 5505
L3529 6553
" />
<path d="M3029 6553
L2505 6553
" />
<path d="M2505 6553
L2505 6029
" />
</g>
<g style="fill:#000000; fill-opacity:0.0; 
stroke:#000000; stroke-width:59.0551; stroke-opacity:1; 
stroke-linecap:round; stroke-linejoin:round;">
<path d="M3618 3727
L5370 3727
" />
<path d="M3018 1011
L5370 1011
" />
</g> 
</svg>
