<?xml version="1.0" standalone="no"?>
 <!DOCTYPE svg PUBLIC "-//W3C//DTD SVG 1.1//EN" 
 "http://www.w3.org/Graphics/SVG/1.1/DTD/svg11.dtd"> 
<svg xmlns="http://www.w3.org/2000/svg" version="1.1" 
    width="3.69062cm" height="3.20802cm" viewBox="0 0 14530 12630 ">
<title>SVG Picture created as stm8-F.Cu.svg date 2017/06/23 10:41:13 </title>
  <desc>Picture generated by PCBNEW </desc>
<g style="fill:#000000; fill-opacity:1;stroke:#000000; stroke-opacity:1;
stroke-linecap:round; stroke-linejoin:round; "
 transform="translate(0 0) scale(1 1)">
</g>
<g style="fill:#000000; fill-opacity:0.0; 
stroke:#000000; stroke-width:-0.000393701; stroke-opacity:1; 
stroke-linecap:round; stroke-linejoin:round;">
</g>
<g style="fill:#000000; fill-opacity:0.0; 
stroke:#000000; stroke-width:39.3701; stroke-opacity:1; 
stroke-linecap:round; stroke-linejoin:round;">
<path d="M19 11519
L19 2519
" />
<path d="M14519 11519
L19 11519
" />
<path d="M14519 2519
L14519 11519
" />
<path d="M19 2519
L14519 2519
" />
</g>
<g style="fill:#000000; fill-opacity:0.0; 
stroke:#000000; stroke-width:0; stroke-opacity:1; 
stroke-linecap:round; stroke-linejoin:round;">
</g>
<g style="fill:#000000; fill-opacity:1.0; 
stroke:#000000; stroke-width:0; stroke-opacity:1; 
stroke-linecap:round; stroke-linejoin:round;">
<polyline style="fill-rule:evenodd;"
points="4610,6023
4610,6515
4216,6515
4216,6023
4610,6023
" /> 
<polyline style="fill-rule:evenodd;"
points="3822,6023
3822,6515
3429,6515
3429,6023
3822,6023
" /> 
<polyline style="fill-rule:evenodd;"
points="6938,7533
6938,8005
6466,8005
6466,7533
6938,7533
" /> 
<polyline style="fill-rule:evenodd;"
points="6072,7533
6072,8005
5600,8005
5600,7533
6072,7533
" /> 
<polyline style="fill-rule:evenodd;"
points="9185,9435
9854,9435
9854,10104
9185,10104
9185,9435
" /> 
</g>
<g style="fill:#000000; fill-opacity:1.0; 
stroke:#000000; stroke-width:669.291; stroke-opacity:1; 
stroke-linecap:round; stroke-linejoin:round;">
</g>
<g style="fill:#000000; fill-opacity:0.0; 
stroke:#000000; stroke-width:669.291; stroke-opacity:1; 
stroke-linecap:round; stroke-linejoin:round;">
<path d="M8519 9769
L8519 9769
" />
<path d="M7519 9769
L7519 9769
" />
<path d="M6519 9769
L6519 9769
" />
</g>
<g style="fill:#000000; fill-opacity:0.0; 
stroke:#000000; stroke-width:0; stroke-opacity:1; 
stroke-linecap:round; stroke-linejoin:round;">
</g>
<g style="fill:#000000; fill-opacity:1.0; 
stroke:#000000; stroke-width:0; stroke-opacity:1; 
stroke-linecap:round; stroke-linejoin:round;">
<polyline style="fill-rule:evenodd;"
points="944,9507
944,9074
1653,9074
1653,9507
944,9507
" /> 
<polyline style="fill-rule:evenodd;"
points="3385,9507
3385,9074
4094,9074
4094,9507
3385,9507
" /> 
<polyline style="fill-rule:evenodd;"
points="944,10964
944,10531
1653,10531
1653,10964
944,10964
" /> 
<polyline style="fill-rule:evenodd;"
points="3385,10964
3385,10531
4094,10531
4094,10964
3385,10964
" /> 
<polyline style="fill-rule:evenodd;"
points="5537,4267
5537,4149
6108,4149
6108,4267
5537,4267
" /> 
<polyline style="fill-rule:evenodd;"
points="5537,4503
5537,4424
6108,4424
6108,4503
5537,4503
" /> 
<polyline style="fill-rule:evenodd;"
points="5537,4778
5537,4660
6108,4660
6108,4778
5537,4778
" /> 
<polyline style="fill-rule:evenodd;"
points="5537,5034
5537,4916
6108,4916
6108,5034
5537,5034
" /> 
<polyline style="fill-rule:evenodd;"
points="5537,5290
5537,5172
6108,5172
6108,5290
5537,5290
" /> 
<polyline style="fill-rule:evenodd;"
points="5537,5546
5537,5428
6108,5428
6108,5546
5537,5546
" /> 
<polyline style="fill-rule:evenodd;"
points="5537,5802
5537,5684
6108,5684
6108,5802
5537,5802
" /> 
<polyline style="fill-rule:evenodd;"
points="5537,6058
5537,5940
6108,5940
6108,6058
5537,6058
" /> 
<polyline style="fill-rule:evenodd;"
points="5537,6314
5537,6196
6108,6196
6108,6314
5537,6314
" /> 
<polyline style="fill-rule:evenodd;"
points="5537,6570
5537,6452
6108,6452
6108,6570
5537,6570
" /> 
<polyline style="fill-rule:evenodd;"
points="7860,6570
7860,6452
8431,6452
8431,6570
7860,6570
" /> 
<polyline style="fill-rule:evenodd;"
points="7860,6314
7860,6196
8431,6196
8431,6314
7860,6314
" /> 
<polyline style="fill-rule:evenodd;"
points="7860,6058
7860,5940
8431,5940
8431,6058
7860,6058
" /> 
<polyline style="fill-rule:evenodd;"
points="7860,5802
7860,5684
8431,5684
8431,5802
7860,5802
" /> 
<polyline style="fill-rule:evenodd;"
points="7860,5546
7860,5428
8431,5428
8431,5546
7860,5546
" /> 
<polyline style="fill-rule:evenodd;"
points="7860,5290
7860,5172
8431,5172
8431,5290
7860,5290
" /> 
<polyline style="fill-rule:evenodd;"
points="7860,5034
7860,4916
8431,4916
8431,5034
7860,5034
" /> 
<polyline style="fill-rule:evenodd;"
points="7860,4778
7860,4660
8431,4660
8431,4778
7860,4778
" /> 
<polyline style="fill-rule:evenodd;"
points="7860,4523
7860,4404
8431,4404
8431,4523
7860,4523
" /> 
<polyline style="fill-rule:evenodd;"
points="7860,4267
7860,4149
8431,4149
8431,4267
7860,4267
" /> 
<polyline style="fill-rule:evenodd;"
points="10090,7588
10090,6801
10484,6801
10484,7588
10090,7588
" /> 
<polyline style="fill-rule:evenodd;"
points="10590,7588
10590,6801
10984,6801
10984,7588
10590,7588
" /> 
<polyline style="fill-rule:evenodd;"
points="11090,7588
11090,6801
11484,6801
11484,7588
11090,7588
" /> 
<polyline style="fill-rule:evenodd;"
points="11590,7588
11590,6801
11984,6801
11984,7588
11590,7588
" /> 
<polyline style="fill-rule:evenodd;"
points="12090,7588
12090,6801
12484,6801
12484,7588
12090,7588
" /> 
<polyline style="fill-rule:evenodd;"
points="12590,7588
12590,6801
12984,6801
12984,7588
12590,7588
" /> 
<polyline style="fill-rule:evenodd;"
points="13090,7588
13090,6801
13484,6801
13484,7588
13090,7588
" /> 
<polyline style="fill-rule:evenodd;"
points="13590,7588
13590,6801
13984,6801
13984,7588
13590,7588
" /> 
<polyline style="fill-rule:evenodd;"
points="8354,8354
7685,8354
7685,7685
8354,7685
8354,8354
" /> 
</g>
<g style="fill:#000000; fill-opacity:1.0; 
stroke:#000000; stroke-width:669.291; stroke-opacity:1; 
stroke-linecap:round; stroke-linejoin:round;">
</g>
<g style="fill:#000000; fill-opacity:0.0; 
stroke:#000000; stroke-width:669.291; stroke-opacity:1; 
stroke-linecap:round; stroke-linejoin:round;">
<path d="M9019 8019
L9019 8019
" />
</g>
<g style="fill:#000000; fill-opacity:0.0; 
stroke:#000000; stroke-width:0; stroke-opacity:1; 
stroke-linecap:round; stroke-linejoin:round;">
</g>
<g style="fill:#000000; fill-opacity:1.0; 
stroke:#000000; stroke-width:0; stroke-opacity:1; 
stroke-linecap:round; stroke-linejoin:round;">
<polyline style="fill-rule:evenodd;"
points="2185,5604
2185,4935
2854,4935
2854,5604
2185,5604
" /> 
</g>
<g style="fill:#000000; fill-opacity:1.0; 
stroke:#000000; stroke-width:669.291; stroke-opacity:1; 
stroke-linecap:round; stroke-linejoin:round;">
</g>
<g style="fill:#000000; fill-opacity:0.0; 
stroke:#000000; stroke-width:669.291; stroke-opacity:1; 
stroke-linecap:round; stroke-linejoin:round;">
<path d="M2519 6269
L2519 6269
" />
<path d="M2519 7269
L2519 7269
" />
</g>
<g style="fill:#000000; fill-opacity:0.0; 
stroke:#000000; stroke-width:0; stroke-opacity:1; 
stroke-linecap:round; stroke-linejoin:round;">
</g>
<g style="fill:#000000; fill-opacity:1.0; 
stroke:#000000; stroke-width:0; stroke-opacity:1; 
stroke-linecap:round; stroke-linejoin:round;">
<polyline style="fill-rule:evenodd;"
points="2604,3854
1935,3854
1935,3185
2604,3185
2604,3854
" /> 
</g>
<g style="fill:#000000; fill-opacity:1.0; 
stroke:#000000; stroke-width:669.291; stroke-opacity:1; 
stroke-linecap:round; stroke-linejoin:round;">
</g>
<g style="fill:#000000; fill-opacity:0.0; 
stroke:#000000; stroke-width:669.291; stroke-opacity:1; 
stroke-linecap:round; stroke-linejoin:round;">
<path d="M3269 3519
L3269 3519
" />
<path d="M4269 3519
L4269 3519
" />
</g>
<g style="fill:#000000; fill-opacity:0.0; 
stroke:#000000; stroke-width:98.4252; stroke-opacity:1; 
stroke-linecap:round; stroke-linejoin:round;">
<path d="M4791 2791
L4769 2791
" />
<path d="M4538 6144
L5144 6144
" />
<path d="M5289 5999
L5823 5999
" />
<path d="M5144 6144
L5289 5999
" />
<path d="M5823 5743
L3795 5743
" />
<path d="M3625 5913
L3625 6269
" />
<path d="M3795 5743
L3625 5913
" />
<path d="M1299 9291
L1299 8990
" />
<path d="M5019 7769
L5836 7769
" />
<path d="M4519 8269
L5019 7769
" />
<path d="M2019 8269
L4519 8269
" />
<path d="M1299 8990
L2019 8269
" />
<path d="M3750 6144
L3750 6538
" />
<path d="M1299 7240
L1299 9291
" />
<path d="M1769 6769
L1299 7240
" />
<path d="M3519 6769
L1769 6769
" />
<path d="M3750 6538
L3519 6769
" />
<path d="M1299 9291
L3740 9291
" />
<path d="M3740 9291
L6041 9291
" />
<path d="M6041 9291
L6519 9769
" />
<path d="M10769 6519
L9769 6519
" />
<path d="M10787 6537
L10769 6519
" />
<path d="M8019 10519
L7769 10769
" />
<path d="M7769 10769
L6519 10769
" />
<path d="M6519 10769
L6519 10269
" />
<path d="M10787 7194
L10787 6537
" />
<path d="M6519 10269
L6519 9769
" />
<path d="M8019 9019
L8019 10519
" />
<path d="M9769 9019
L8019 9019
" />
<path d="M9769 6519
L9769 9019
" />
<path d="M5836 7769
L5836 8086
" />
<path d="M5836 8086
L6519 8769
" />
<path d="M6519 9769
L6519 8769
" />
<path d="M6519 8769
L6336 8586
" />
<path d="M6702 7769
L6702 7336
" />
<path d="M7325 4464
L8146 4464
" />
<path d="M7019 4769
L7325 4464
" />
<path d="M7019 7019
L7019 4769
" />
<path d="M6702 7336
L7019 7019
" />
<path d="M13269 3269
L14269 4269
" />
<path d="M6755 6255
L6755 4284
" />
<path d="M7769 3269
L13269 3269
" />
<path d="M6755 4284
L7769 3269
" />
<path d="M13769 8519
L11269 8519
" />
<path d="M14269 8019
L13769 8519
" />
<path d="M14269 4269
L14269 8019
" />
<path d="M9519 9769
L10019 9769
" />
<path d="M10019 9769
L11269 8519
" />
<path d="M10287 7751
L10501 7751
" />
<path d="M10501 7751
L11269 8519
" />
<path d="M10287 7194
L10287 7751
" />
<path d="M5823 6255
L6519 6255
" />
<path d="M6519 6255
L6755 6255
" />
<path d="M6755 6255
L6769 6241
" />
<path d="M6519 6255
L6505 6255
" />
<path d="M3740 10748
L5498 10748
" />
<path d="M8519 10769
L8519 9769
" />
<path d="M8269 11019
L8519 10769
" />
<path d="M5769 11019
L8269 11019
" />
<path d="M5498 10748
L5769 11019
" />
<path d="M5823 4975
L4063 4975
" />
<path d="M519 9968
L1299 10748
" />
<path d="M519 5519
L519 9968
" />
<path d="M1519 4519
L519 5519
" />
<path d="M3607 4519
L1519 4519
" />
<path d="M4063 4975
L3607 4519
" />
<path d="M1299 10748
L3740 10748
" />
<path d="M3740 10748
L3998 10748
" />
<path d="M8519 10269
L8519 9769
" />
<path d="M8519 10269
L8519 10519
" />
<path d="M7519 4769
L7269 5019
" />
<path d="M7519 4769
L7569 4719
" />
<path d="M8146 4719
L7569 4719
" />
<path d="M7519 9019
L7519 9769
" />
<path d="M7269 8769
L7519 9019
" />
<path d="M7269 5019
L7269 8769
" />
<path d="M11287 7194
L11287 6537
" />
<path d="M10769 6019
L8166 6019
" />
<path d="M11287 6537
L10769 6019
" />
<path d="M8166 6019
L8146 5999
" />
<path d="M11787 7194
L11787 6287
" />
<path d="M11243 5743
L8146 5743
" />
<path d="M11787 6287
L11243 5743
" />
<path d="M8146 5487
L11737 5487
" />
<path d="M12287 6037
L12287 7194
" />
<path d="M12287 6037
L11769 5519
" />
<path d="M11737 5487
L11769 5519
" />
<path d="M8178 5519
L8146 5487
" />
<path d="M12787 7194
L12787 5787
" />
<path d="M12231 5231
L8146 5231
" />
<path d="M12787 5787
L12231 5231
" />
<path d="M13287 7194
L13287 5037
" />
<path d="M13225 4975
L8146 4975
" />
<path d="M13287 5037
L13225 4975
" />
<path d="M5823 5231
L2557 5231
" />
<path d="M2557 5231
L2519 5269
" />
<path d="M5823 5487
L3551 5487
" />
<path d="M3519 5519
L2769 6269
" />
<path d="M3551 5487
L3519 5519
" />
<path d="M2519 6269
L2769 6269
" />
<path d="M5791 5519
L5823 5487
" />
<path d="M2519 7269
L4269 7269
" />
<path d="M5028 6511
L5823 6511
" />
<path d="M4269 7269
L5028 6511
" />
<path d="M8146 6511
L8146 7893
" />
<path d="M8146 7893
L8019 8019
" />
<path d="M8146 6255
L8755 6255
" />
<path d="M9019 6519
L9019 8019
" />
<path d="M8755 6255
L9019 6519
" />
<path d="M2269 3519
L3019 4269
" />
<path d="M4219 4719
L5823 4719
" />
<path d="M3769 4269
L4219 4719
" />
<path d="M3019 4269
L3769 4269
" />
<path d="M3269 3519
L3519 3519
" />
<path d="M3519 3519
L4464 4464
" />
<path d="M4464 4464
L5823 4464
" />
<path d="M4269 3519
L5134 3519
" />
<path d="M5134 3519
L5823 4208
" />
<path d="M13787 7194
L13787 4787
" />
<path d="M13208 4208
L8146 4208
" />
<path d="M13787 4787
L13208 4208
" />
</g>
<g style="fill:#000000; fill-opacity:1.0; 
stroke:#000000; stroke-width:100; stroke-opacity:1; 
stroke-linecap:round; stroke-linejoin:round;">
<polyline style="fill-rule:evenodd;"
points="1950,4835
1930,4935
1930,5604
1947,5696
2002,5782
2085,5839
2112,5844
2094,5856
1968,6045
1923,6269
1968,6493
2094,6683
2224,6769
2094,6856
1968,7045
1923,7269
1968,7493
2094,7683
2284,7809
2508,7854
2531,7854
2754,7809
2944,7683
3020,7568
4269,7568
4384,7546
4477,7483
5350,7483
5350,7657
5412,7719
5786,7719
5786,7345
5724,7283
5550,7283
5458,7321
5388,7391
5350,7483
4477,7483
4481,7481
5152,6810
5465,6810
5537,6825
6108,6825
6201,6807
6286,6753
6343,6669
6363,6570
6363,6554
6720,6554
6720,6895
6491,7125
6426,7222
6413,7288
6373,7295
6288,7350
6270,7377
6214,7321
6122,7283
5949,7283
5886,7345
5886,7719
5894,7719
5894,7819
5886,7819
5886,8193
5949,8255
6122,8255
6214,8217
6270,8162
6283,8183
6367,8240
6466,8260
6938,8260
6970,8254
6970,8769
6993,8884
7058,8981
7220,9143
7220,9268
7106,9344
7016,9478
6990,9422
6821,9269
6660,9202
6569,9249
6569,9719
6577,9719
6577,9819
6569,9819
6569,10289
6660,10337
6821,10270
6990,10116
7016,10060
7106,10194
7295,10321
7519,10365
7743,10321
7933,10194
8019,10064
8106,10194
8220,10270
8220,10645
8145,10720
5893,10720
5709,10536
5612,10471
5498,10448
4333,10448
4331,10438
4277,10353
4193,10296
4094,10276
3385,10276
3293,10294
3208,10348
3151,10432
3147,10448
1892,10448
1891,10438
1836,10353
1752,10296
1653,10276
1250,10276
884,9910
5952,9910
6049,10116
6217,10270
6379,10337
6469,10289
6469,9819
5999,9819
5952,9910
884,9910
818,9844
818,9726
895,9757
1186,9757
1249,9695
1249,9341
1349,9341
1349,9695
1411,9757
1703,9757
1795,9719
1865,9649
1903,9557
1903,9403
3135,9403
3135,9557
3173,9649
3244,9719
3336,9757
3627,9757
3690,9695
3690,9341
3790,9341
3790,9695
3852,9757
4144,9757
4236,9719
4306,9649
4314,9629
5952,9629
5999,9719
6469,9719
6469,9249
6379,9202
6217,9269
6049,9422
5952,9629
4314,9629
4344,9557
4344,9403
4281,9341
3790,9341
3690,9341
3198,9341
3135,9403
1903,9403
1841,9341
1349,9341
1249,9341
1241,9341
1241,9241
1249,9241
1249,8887
1349,8887
1349,9241
1841,9241
1903,9178
1903,9025
3135,9025
3135,9178
3198,9241
3690,9241
3690,8887
3790,8887
3790,9241
4281,9241
4344,9178
4344,9025
4306,8933
4236,8862
4144,8824
3852,8824
3790,8887
3690,8887
3627,8824
3336,8824
3244,8862
3173,8933
3135,9025
1903,9025
1865,8933
1795,8862
1703,8824
1411,8824
1349,8887
1249,8887
1186,8824
895,8824
818,8856
818,7882
5350,7882
5350,8055
5388,8147
5458,8217
5550,8255
5724,8255
5786,8193
5786,7819
5412,7819
5350,7882
818,7882
818,5643
1643,4818
1961,4818
1950,4835
" /> 
<polyline style="fill-rule:evenodd;"
points="10888,6562
10837,6613
10837,6792
10835,6801
10835,7252
10739,7252
10739,6801
10737,6791
10737,6613
10674,6551
10540,6551
10530,6555
10484,6546
10090,6546
9997,6563
9912,6618
9855,6702
9835,6801
9835,7588
9853,7681
9907,7766
9991,7823
10002,7825
10010,7866
10075,7963
10172,8028
10287,8051
10378,8051
10846,8519
10065,9301
10037,9257
9953,9200
9854,9180
9185,9180
9092,9197
9007,9252
8950,9335
8944,9362
8933,9344
8743,9218
8519,9173
8295,9218
8106,9344
8019,9474
7933,9344
7818,9268
7818,9019
7796,8905
7731,8808
7568,8645
7568,8577
7585,8589
7685,8609
8354,8609
8446,8591
8532,8537
8589,8453
8594,8426
8606,8444
8795,8571
9019,8615
9243,8571
9433,8444
9559,8254
9604,8031
9604,8008
9559,7784
9433,7594
9318,7518
9318,6519
9296,6405
9238,6318
10645,6318
10888,6562
" /> 
<polyline style="fill-rule:evenodd;"
points="3675,6219
3683,6219
3683,6319
3675,6319
3675,6703
3738,6765
3872,6765
3964,6727
4020,6672
4033,6693
4117,6750
4216,6770
4345,6770
4145,6970
3020,6970
2944,6856
2814,6769
2944,6683
3071,6493
3096,6365
3179,6283
3179,6319
3241,6319
3179,6382
3179,6565
3217,6657
3287,6727
3379,6765
3513,6765
3575,6703
3575,6319
3568,6319
3568,6219
3575,6219
3575,6211
3675,6211
3675,6219
" /> 
</g>
<g style="fill:#FFFFFF; fill-opacity:1.0; 
stroke:#FFFFFF; stroke-width:100; stroke-opacity:1; 
stroke-linecap:round; stroke-linejoin:round;">
</g>
<g style="fill:#FFFFFF; fill-opacity:1.0; 
stroke:#FFFFFF; stroke-width:0; stroke-opacity:1; 
stroke-linecap:round; stroke-linejoin:round;">
<circle cx="9519.69" cy="9769.69" r="196.85" /> 
</g>
<g style="fill:#FFFFFF; fill-opacity:1.0; 
stroke:#FFFFFF; stroke-width:39.3701; stroke-opacity:1; 
stroke-linecap:round; stroke-linejoin:round;">
</g>
<g style="fill:#FFFFFF; fill-opacity:1.0; 
stroke:#FFFFFF; stroke-width:0; stroke-opacity:1; 
stroke-linecap:round; stroke-linejoin:round;">
<circle cx="8519.69" cy="9769.69" r="196.85" /> 
</g>
<g style="fill:#FFFFFF; fill-opacity:1.0; 
stroke:#FFFFFF; stroke-width:39.3701; stroke-opacity:1; 
stroke-linecap:round; stroke-linejoin:round;">
</g>
<g style="fill:#FFFFFF; fill-opacity:1.0; 
stroke:#FFFFFF; stroke-width:0; stroke-opacity:1; 
stroke-linecap:round; stroke-linejoin:round;">
<circle cx="7519.69" cy="9769.69" r="196.85" /> 
</g>
<g style="fill:#FFFFFF; fill-opacity:1.0; 
stroke:#FFFFFF; stroke-width:39.3701; stroke-opacity:1; 
stroke-linecap:round; stroke-linejoin:round;">
</g>
<g style="fill:#FFFFFF; fill-opacity:1.0; 
stroke:#FFFFFF; stroke-width:0; stroke-opacity:1; 
stroke-linecap:round; stroke-linejoin:round;">
<circle cx="6519.69" cy="9769.69" r="196.85" /> 
</g>
<g style="fill:#FFFFFF; fill-opacity:1.0; 
stroke:#FFFFFF; stroke-width:39.3701; stroke-opacity:1; 
stroke-linecap:round; stroke-linejoin:round;">
</g>
<g style="fill:#FFFFFF; fill-opacity:1.0; 
stroke:#FFFFFF; stroke-width:0; stroke-opacity:1; 
stroke-linecap:round; stroke-linejoin:round;">
<circle cx="8019.69" cy="8019.69" r="196.85" /> 
</g>
<g style="fill:#FFFFFF; fill-opacity:1.0; 
stroke:#FFFFFF; stroke-width:39.3701; stroke-opacity:1; 
stroke-linecap:round; stroke-linejoin:round;">
</g>
<g style="fill:#FFFFFF; fill-opacity:1.0; 
stroke:#FFFFFF; stroke-width:0; stroke-opacity:1; 
stroke-linecap:round; stroke-linejoin:round;">
<circle cx="9019.69" cy="8019.69" r="196.85" /> 
</g>
<g style="fill:#FFFFFF; fill-opacity:1.0; 
stroke:#FFFFFF; stroke-width:39.3701; stroke-opacity:1; 
stroke-linecap:round; stroke-linejoin:round;">
</g>
<g style="fill:#FFFFFF; fill-opacity:1.0; 
stroke:#FFFFFF; stroke-width:0; stroke-opacity:1; 
stroke-linecap:round; stroke-linejoin:round;">
<circle cx="2519.69" cy="5269.69" r="196.85" /> 
</g>
<g style="fill:#FFFFFF; fill-opacity:1.0; 
stroke:#FFFFFF; stroke-width:39.3701; stroke-opacity:1; 
stroke-linecap:round; stroke-linejoin:round;">
</g>
<g style="fill:#FFFFFF; fill-opacity:1.0; 
stroke:#FFFFFF; stroke-width:0; stroke-opacity:1; 
stroke-linecap:round; stroke-linejoin:round;">
<circle cx="2519.69" cy="6269.69" r="196.85" /> 
</g>
<g style="fill:#FFFFFF; fill-opacity:1.0; 
stroke:#FFFFFF; stroke-width:39.3701; stroke-opacity:1; 
stroke-linecap:round; stroke-linejoin:round;">
</g>
<g style="fill:#FFFFFF; fill-opacity:1.0; 
stroke:#FFFFFF; stroke-width:0; stroke-opacity:1; 
stroke-linecap:round; stroke-linejoin:round;">
<circle cx="2519.69" cy="7269.69" r="196.85" /> 
</g>
<g style="fill:#FFFFFF; fill-opacity:1.0; 
stroke:#FFFFFF; stroke-width:39.3701; stroke-opacity:1; 
stroke-linecap:round; stroke-linejoin:round;">
</g>
<g style="fill:#FFFFFF; fill-opacity:1.0; 
stroke:#FFFFFF; stroke-width:0; stroke-opacity:1; 
stroke-linecap:round; stroke-linejoin:round;">
<circle cx="2269.69" cy="3519.69" r="196.85" /> 
</g>
<g style="fill:#FFFFFF; fill-opacity:1.0; 
stroke:#FFFFFF; stroke-width:39.3701; stroke-opacity:1; 
stroke-linecap:round; stroke-linejoin:round;">
</g>
<g style="fill:#FFFFFF; fill-opacity:1.0; 
stroke:#FFFFFF; stroke-width:0; stroke-opacity:1; 
stroke-linecap:round; stroke-linejoin:round;">
<circle cx="3269.69" cy="3519.69" r="196.85" /> 
</g>
<g style="fill:#FFFFFF; fill-opacity:1.0; 
stroke:#FFFFFF; stroke-width:39.3701; stroke-opacity:1; 
stroke-linecap:round; stroke-linejoin:round;">
</g>
<g style="fill:#FFFFFF; fill-opacity:1.0; 
stroke:#FFFFFF; stroke-width:0; stroke-opacity:1; 
stroke-linecap:round; stroke-linejoin:round;">
<circle cx="4269.69" cy="3519.69" r="196.85" /> 
</g>
<g style="fill:#FFFFFF; fill-opacity:1.0; 
stroke:#FFFFFF; stroke-width:39.3701; stroke-opacity:1; 
stroke-linecap:round; stroke-linejoin:round;">
</g>
<g style="fill:#000000; fill-opacity:1.0; 
stroke:#000000; stroke-width:39.3701; stroke-opacity:1; 
stroke-linecap:round; stroke-linejoin:round;">
</g> 
</svg>
