G04 #@! TF.FileFunction,Soldermask,Top*
%FSLAX46Y46*%
G04 Gerber Fmt 4.6, Leading zero omitted, Abs format (unit mm)*
G04 Created by KiCad (PCBNEW 4.0.6) date 07/07/17 14:26:12*
%MOMM*%
%LPD*%
G01*
G04 APERTURE LIST*
%ADD10C,0.100000*%
%ADD11R,1.000000X1.250000*%
%ADD12R,1.200000X1.200000*%
%ADD13R,1.700000X1.700000*%
%ADD14O,1.700000X1.700000*%
%ADD15R,1.800000X1.100000*%
%ADD16R,1.450000X0.300000*%
%ADD17R,1.450000X0.200000*%
%ADD18R,1.000000X2.000000*%
G04 APERTURE END LIST*
D10*
D11*
X141970000Y-107315000D03*
X139970000Y-107315000D03*
D12*
X147785000Y-111125000D03*
X145585000Y-111125000D03*
D13*
X154940000Y-116205000D03*
D14*
X152400000Y-116205000D03*
X149860000Y-116205000D03*
X147320000Y-116205000D03*
D15*
X134060000Y-114990000D03*
X140260000Y-114990000D03*
X134060000Y-118690000D03*
X140260000Y-118690000D03*
D16*
X145551100Y-102078600D03*
D17*
X145551100Y-102728600D03*
D16*
X145551100Y-103378600D03*
X145551100Y-104028600D03*
X145551100Y-104678600D03*
X145551100Y-105328600D03*
X145551100Y-105978600D03*
X145551100Y-106628600D03*
X145551100Y-107278600D03*
X145551100Y-107928600D03*
X151451100Y-107928600D03*
X151451100Y-107278600D03*
X151451100Y-106628600D03*
X151451100Y-105978600D03*
X151451100Y-105328600D03*
X151451100Y-104678600D03*
X151451100Y-104028600D03*
X151451100Y-103378600D03*
X151451100Y-102728600D03*
X151451100Y-102078600D03*
D18*
X156890000Y-109665000D03*
X158160000Y-109665000D03*
X159430000Y-109665000D03*
X160700000Y-109665000D03*
X161970000Y-109665000D03*
X163240000Y-109665000D03*
X164510000Y-109665000D03*
X165780000Y-109665000D03*
D13*
X151130000Y-111760000D03*
D14*
X153670000Y-111760000D03*
D13*
X137160000Y-104775000D03*
D14*
X137160000Y-107315000D03*
X137160000Y-109855000D03*
D13*
X136525000Y-100330000D03*
D14*
X139065000Y-100330000D03*
X141605000Y-100330000D03*
M02*
